<svg width="381" height="181" viewBox="0 0 381 181" fill="none" xmlns="http://www.w3.org/2000/svg">
<path fill-rule="evenodd" clip-rule="evenodd" d="M124.71 0.298151C136.054 -2.72418 134.312 18.1383 125.363 17.9326C117.291 17.7479 117.425 2.24168 124.71 0.298151Z" fill="#EE4542"/>
<path fill-rule="evenodd" clip-rule="evenodd" d="M143.939 5.52426C147.68 4.76448 150.817 5.96921 151.433 10.423C152.334 16.9252 146.645 24.057 140.679 23.1587C138.233 22.7893 136.147 20.1028 135.791 18.26C134.542 11.8124 139.867 6.3512 143.939 5.52426Z" fill="#EE4542"/>
<path fill-rule="evenodd" clip-rule="evenodd" d="M109.067 9.76815C118.711 7.03966 118.807 24.7161 112 25.7697C103.483 27.092 102.465 11.6361 109.067 9.76815Z" fill="#EE4542"/>
<path fill-rule="evenodd" clip-rule="evenodd" d="M127.32 22.1806C128.962 21.8784 130.931 21.509 132.209 21.8532C137.165 23.1923 138.505 32.805 140.684 37.8548C142.259 41.5068 146.075 46.6279 143.289 52.5509C142.049 55.187 138.241 57.1641 134.492 56.7947C130.081 56.3624 128.744 52.6474 123.738 50.918C119.52 49.4614 113.332 50.9893 109.398 48.9577C106.152 47.2828 104.819 41.7334 105.812 38.1822C107.232 33.1114 114.291 30.2738 118.523 27.4067C121.635 25.2953 123.227 22.932 127.32 22.1848V22.1806Z" fill="#EE4542"/>
<path fill-rule="evenodd" clip-rule="evenodd" d="M148.174 37.8549C146.042 36.7257 145.229 34.2742 143.939 32.3013C145.359 27.0836 149.439 22.7936 154.37 22.1765C164.244 24.6531 158.614 39.005 148.178 37.8507L148.174 37.8549Z" fill="#EE4542"/>
<path fill-rule="evenodd" clip-rule="evenodd" d="M44.5403 124.717C39.9949 128.966 35.6507 135.967 27.5947 137.126C9.78204 139.691 5.01467 119.315 8.69283 102.835C11.8432 88.7265 25.165 71.9484 37.6992 66.5879C41.5994 64.9215 46.2746 64.6234 51.3855 65.2825C52.2527 59.4015 51.9552 52.3578 53.0151 46.6699C63.8444 41.6411 78.7371 50.7207 79.7384 58.7509C80.2788 63.0871 77.627 69.69 76.4791 74.0976C72.8177 88.1556 69.6548 105.807 68.331 121.447C78.1213 115.474 86.5124 105.265 93.4247 95.3211C93.5964 93.6294 93.2026 91.2871 93.4247 89.1169C94.5851 77.7454 106.319 65.1565 115.259 61.3618C123.545 57.84 130.152 62.6589 129.926 71.4866C129.758 78.077 125.988 85.4607 123.407 91.7321C120.043 99.9092 115.251 107.045 116.889 117.204C121.581 116.65 125.824 112.767 129.599 108.712C132.284 105.828 138.007 100.665 138.723 96.9582C139.322 93.8519 137.228 88.4369 137.747 84.5498C139.192 73.7156 151.743 60.325 160.235 57.4454C164.123 56.1273 169.987 56.3456 171.642 59.0783C173.029 61.366 172.551 65.3538 172.296 68.5483C171.734 75.4702 168.555 82.5979 166.753 88.1431C172.518 79.8232 181.219 65.337 192.501 60.7112C201.545 57.0004 210.326 61.5801 211.402 69.8537C212.45 77.8965 208.65 86.0568 205.864 93.0376C202.048 102.591 197.146 109.001 198.043 120.142C202.823 119.609 206.719 116.431 210.104 113.287C213.12 110.479 217.573 106.533 219.555 102.835C221.742 98.7548 222.873 93.9694 225.097 89.7718C231.343 77.9763 243.651 63.3725 262.252 65.2783C263.324 59.7163 262.717 52.4627 263.881 46.9931C273.55 41.6621 289.109 49.6545 290.278 57.7686C290.47 59.0993 290.382 60.5055 290.278 62.0125C289.649 70.9787 285.485 80.4949 283.432 90.7498C281.288 101.471 280.228 111.952 279.197 121.771C291.4 113.317 302.037 100.463 309.18 85.8511C307.688 82.3335 306.046 79.0593 307.223 73.7702C309.393 64.0315 322.451 50.876 331.668 47.9712C338.232 45.9017 348.257 48.7688 345.681 57.4412C344.562 61.2107 336.125 63.1626 334.927 67.566C342.882 72.6452 359.12 71.0753 355.458 85.2005C352.677 95.9298 341.998 107.138 344.378 119.815C352.522 121.439 357.268 114.404 361.65 110.017C366.409 105.249 370.753 99.5608 374.36 94.343C386.568 95.447 379.061 108.237 374.687 114.261C367.867 123.655 360.728 130.116 351.223 136.467C346.983 139.3 341.206 143.179 335.58 143.649C327.03 144.363 318.425 140.119 317.332 132.874C315.304 119.445 324.03 107.44 325.803 95.3211C324.776 93.1929 321.739 93.0795 320.264 91.4005C310.306 109.677 299.448 123.664 283.11 136.467C280.885 138.213 277.953 140.362 277.245 142.02C276.277 144.279 276.332 147.36 275.942 149.53C272.792 166.997 262.976 182.499 240.417 180.878C233.011 180.345 225.495 177.138 220.539 173.369C212.567 167.307 206.53 153.812 215.977 144.631C218.005 142.663 223.023 139.733 224.775 140.06C226.609 140.4 228.151 144.203 229.663 146.264C231.222 148.384 233.082 150.785 234.552 152.468C236.685 154.911 243.044 162.329 248.565 160.633C252.378 159.462 252.805 149.685 253.454 144.304C254.33 137.092 254.539 131.278 255.411 125.037C250.945 128.789 246.446 136.06 238.465 137.122C227.732 138.545 221.788 131.304 219.563 122.426C210.757 128.726 202.345 139.33 189.907 142.02C182.22 143.683 174.503 141.093 172.635 135.161C167.625 119.265 180.972 104.241 180.456 91.0772C173.883 92.7563 166.846 97.8229 164.16 103.813C162.158 108.279 162.028 114.849 161.228 120.793C160.432 126.703 160.088 132.895 159.598 138.755C146.503 144.619 136.163 133.923 135.154 122.426C128.187 127.782 115.217 144.178 99.9557 142.671C91.129 141.802 86.8182 132.571 89.2019 121.447C89.1432 121.17 89.3276 121.141 89.5287 121.12C85.2766 124.692 78.4607 131.698 72.5831 136.467C70.4257 138.221 67.6482 139.64 66.7182 141.366C65.3148 143.964 65.608 147.465 65.0886 150.185C63.526 158.4 60.6605 166.321 55.3108 171.736C40.0284 187.213 8.87297 181.403 1.21083 162.916C-0.0166235 159.953 -0.410413 155.747 0.557304 152.141C2.16598 146.138 9.35892 139.409 13.5943 140.06C15.9696 140.421 17.0797 143.888 18.8099 146.264C20.4563 148.531 22.5718 150.823 24.0255 152.468C26.8197 155.638 32.2825 162.778 38.0386 160.305C41.5994 158.773 42.0058 149.278 42.6007 143.649C43.3715 136.358 43.472 130.674 44.557 124.709L44.5403 124.717ZM35.7387 115.902C40.527 116.343 43.1997 114.672 45.8431 112.964C47.0329 101.202 49.2574 88.7391 50.0785 77.695C40.5521 84.5246 30.5188 100.224 35.7387 115.902ZM246.274 114.92C250.618 117.518 256.01 114.811 257.354 111.004C258.502 107.746 258.138 100.891 258.984 94.6746C259.931 87.7149 261.238 80.9314 260.614 77.6908C251.544 85.2467 242.453 97.6802 246.274 114.92Z" fill="#EE4542"/>
</svg>
