<svg xmlns="http://www.w3.org/2000/svg" width="106" height="106" fill="none"><g filter="url(#a)"><rect width="106" height="106" fill="#1A1A1A" rx="53"/><g clip-path="url(#b)"><mask id="c" width="86" height="18" x="10" y="44" maskUnits="userSpaceOnUse" style="mask-type:luminance"><path fill="#fff" d="M96 44.5H10v17h86v-17Z"/></mask><g fill="#fff" mask="url(#c)"><path d="M53.181 44.94h-2.12v3.249h-1.668v1.871h1.668v5.896c0 1.448.956 2.401 2.364 2.401h1.947v-1.871H53.98c-.47 0-.8-.335-.8-.83v-5.595h2.19V48.19h-2.19v-3.25Zm40.681 10.273-.005.013c-.364.885-1.189 1.398-2.253 1.398-1.65 0-2.642-1.27-2.745-2.982h6.898c.54-3.211-1.32-5.665-4.344-5.665-2.815 0-4.691 2.312-4.691 5.294 0 2.982 1.945 5.294 4.882 5.294 2.19 0 4.014-1.236 4.396-3.353 0 0-2.086-.132-2.138 0ZM91.517 49.9c1.199 0 2.085.811 2.172 1.976h-4.691c.348-1.27 1.338-1.976 2.52-1.976h-.001Zm-74.839.683 2.817 4.363 3.858-4.68-2.067-5.766-4.608 6.083ZM12.067 44.5 10 50.267l3.857 4.679 2.819-4.363-4.609-6.083Zm4.602 13.854v.003l.007-.01.01.01v-.003l2.81-3.407h-5.637l2.81 3.407Zm42.126-7.571c0-.653.643-1.112 1.6-1.112 1.025 0 1.86.653 2.12 1.66l2.122-.318c-.295-1.783-2.086-3.037-4.173-3.037-2.26 0-3.824 1.236-3.824 3.037 0 4.06 5.91 2.102 5.91 4.608 0 .742-.678 1.235-1.686 1.235-1.095 0-2.103-.723-2.382-1.924l-2.103.265c.313 2.013 2.139 3.372 4.398 3.372 2.26 0 3.946-1.306 3.946-3.16 0-4.255-5.928-2.454-5.928-4.626Zm12.315-2.805c-1.252 0-2.365.689-2.973 1.836l-.156-1.624h-1.843V61.5h2.103v-4.59c.626 1.041 1.686 1.66 2.868 1.66 2.52 0 4.329-2.084 4.329-5.296s-1.791-5.296-4.329-5.296Zm-.384 8.65c-1.477 0-2.486-1.307-2.486-3.354 0-2.048 1.009-3.354 2.486-3.354 1.477 0 2.573 1.288 2.573 3.354 0 2.065-1.025 3.353-2.573 3.353Zm8.297-8.438H76.92v10.167h2.103V48.19ZM38.137 44.5l-4.425 11.652L29.305 44.5h-2.383l4.981 13.856h3.618l4.98-13.856h-2.364Zm8.45 10.713-.005.013c-.365.885-1.189 1.398-2.253 1.398-1.651 0-2.642-1.27-2.746-2.982h6.899c.539-3.211-1.32-5.665-4.344-5.665-2.816 0-4.692 2.312-4.692 5.294 0 2.982 1.946 5.294 4.883 5.294 2.19 0 4.014-1.236 4.396-3.353 0 0-2.086-.132-2.138 0ZM44.24 49.9c1.2 0 2.085.811 2.172 1.976h-4.69c.347-1.27 1.337-1.976 2.52-1.976h-.002Zm38.884-.07-.174-1.641h-1.825v10.17h2.103v-5.332c0-1.801.695-2.967 2.104-2.967h1.345v-1.87h-1.484c-1.025 0-1.773.636-2.07 1.641Zm-5.161-5.33c-.7 0-1.228.489-1.228 1.199 0 .71.778 1.198 1.228 1.198.45 0 1.242-.489 1.242-1.198 0-.71-.512-1.199-1.242-1.199Z"/></g></g></g><defs><clipPath id="b"><path fill="#fff" d="M10 44.5h86v17H10z"/></clipPath><filter id="a" width="106" height="110" x="0" y="0" color-interpolation-filters="sRGB" filterUnits="userSpaceOnUse"><feFlood flood-opacity="0" result="BackgroundImageFix"/><feBlend in="SourceGraphic" in2="BackgroundImageFix" result="shape"/><feColorMatrix in="SourceAlpha" result="hardAlpha" values="0 0 0 0 0 0 0 0 0 0 0 0 0 0 0 0 0 0 127 0"/><feOffset dy="4"/><feGaussianBlur stdDeviation="2"/><feComposite in2="hardAlpha" k2="-1" k3="1" operator="arithmetic"/><feColorMatrix values="0 0 0 0 1 0 0 0 0 1 0 0 0 0 1 0 0 0 0.25 0"/><feBlend in2="shape" result="effect1_innerShadow_2114_14066"/></filter></defs></svg>