<svg width="590" height="284" viewBox="0 0 590 284" fill="none" xmlns="http://www.w3.org/2000/svg">
<path d="M54.5252 191.927V164.852L66.9344 146.802C58.6616 146.802 51.8929 148.683 47.0045 151.315C43.9962 152.819 41.74 155.451 40.2358 158.46C39.4838 160.34 38.3556 162.22 36.8515 164.476L44.7482 201.328H59.7897V199.447C60.1657 196.063 57.9095 193.055 54.5252 191.927Z" fill="white"/>
<path d="M163.576 68.211C160.191 68.211 157.559 68.963 154.927 65.5787C151.918 61.8184 150.038 53.1695 135.373 52.0414L134.997 38.8802C128.228 41.8885 114.691 68.963 114.691 68.963C113.939 70.0911 113.563 70.8432 113.563 70.8432L104.538 85.8846C91.0006 100.926 83.1039 89.269 48.8846 96.7897C42.8681 98.2938 38.3556 100.174 34.5953 103.182C29.7068 102.806 16.1695 99.798 3.76034 87.0127C3.76034 87.0127 -0.376049 97.9178 26.3225 111.831C21.434 118.976 19.9299 126.873 19.5538 133.265C19.1778 148.307 17.2976 154.323 11.2811 165.228L18.8018 201.704H33.8432V199.823C33.8432 196.439 31.587 193.431 28.5787 192.303V164.852C28.5787 164.476 40.9879 136.649 76.7113 143.042C83.1039 143.794 89.4965 145.298 95.8891 146.802V201.704H110.178V199.823C110.178 197.191 108.674 194.559 106.794 193.431L112.811 149.435C113.187 149.435 113.187 149.435 113.563 149.435C116.195 149.435 118.075 149.059 120.331 148.683L125.22 201.704H139.133V199.823C139.133 196.815 137.253 193.807 134.621 192.679V137.025C136.501 133.265 137.253 129.505 138.005 125.368H138.757C138.757 105.815 143.27 89.645 154.551 89.645C171.472 89.645 174.105 77.9879 174.105 67.8349L163.576 68.211Z" fill="white"/>
<path d="M141.013 109.199L142.518 103.558H138.005C118.451 100.55 107.922 87.3888 105.29 84.0045C105.29 84.0045 102.658 87.3888 102.282 87.7648C106.042 92.6533 117.699 105.062 138.005 108.071V109.199L131.988 137.025L139.509 147.554L147.03 137.402L141.013 109.199Z" fill="#6CCA98"/>
<path d="M569.694 158.836H562.173C562.173 153.195 562.173 151.691 557.285 148.683C554.277 146.802 550.892 146.426 547.132 146.426C536.227 146.426 528.33 152.819 524.946 162.972C521.562 174.629 526.074 187.414 536.227 192.303C546.004 197.191 555.781 196.063 567.438 186.662L570.822 192.679C565.558 197.567 559.917 200.576 553.149 201.704C543.372 203.208 534.723 201.328 526.826 195.311C517.801 187.79 514.417 178.013 515.921 166.732C517.425 153.195 525.322 144.17 538.483 140.41C546.756 138.154 554.653 138.906 562.549 142.666C570.446 146.802 569.694 150.939 569.694 158.836Z" fill="#6CCA98"/>
<path d="M203.059 116.72H165.832V123.488H176.737V194.183H165.832V200.952H196.291V194.183H185.386C185.386 185.534 185.386 136.273 185.386 123.488H201.555C219.605 123.488 224.117 131.761 224.117 142.666C224.117 153.571 216.973 160.34 201.555 160.34C198.171 160.34 193.658 160.34 190.65 160.34V167.86H201.555C219.981 167.86 231.638 158.836 231.638 142.666C232.39 127.625 223.741 116.72 203.059 116.72Z" fill="white"/>
<path d="M494.487 140.786C484.71 137.025 475.309 138.906 467.036 144.922C459.516 150.563 456.131 158.836 455.379 167.86C454.627 176.133 456.507 183.654 461.772 190.423C470.421 202.08 487.342 205.84 501.256 199.447C504.264 197.943 507.272 196.439 509.528 193.807C508.4 191.927 507.272 190.047 505.768 187.79C495.615 195.311 485.086 197.943 474.181 190.799C471.549 189.294 464.028 183.278 464.028 168.236C464.028 153.195 476.813 145.674 484.71 145.674C497.119 145.674 502.384 155.075 502.384 164.476H470.045V170.493H510.657C510.28 158.083 508.4 146.426 494.487 140.786Z" fill="#6CCA98"/>
<path d="M270.37 140.786C260.593 137.025 251.192 138.906 242.919 144.922C235.398 150.563 232.014 158.836 231.262 167.86C230.51 176.133 232.39 183.654 237.655 190.423C246.303 202.08 263.225 205.84 277.138 199.447C280.147 197.943 283.155 196.439 285.411 193.807C284.283 191.927 283.155 190.047 281.651 187.79C271.498 195.311 260.969 197.943 250.064 190.799C247.431 189.294 239.911 183.278 239.911 168.236C239.911 153.195 252.696 145.674 260.593 145.674C273.002 145.674 278.266 155.075 278.266 164.476H245.927V170.493H286.539C286.163 158.083 284.283 146.426 270.37 140.786Z" fill="white"/>
<path d="M306.093 180.27C306.093 170.493 306.093 157.707 306.093 147.555H321.134V140.786H306.093V124.24H297.82V140.786H286.915V147.555H297.444V181.398C297.444 197.191 309.101 203.584 322.263 201.704V194.935C311.734 195.687 306.469 191.551 306.093 180.27Z" fill="white"/>
<path d="M380.548 183.278V193.807H345.953C345.953 188.918 345.953 175.757 345.953 162.22H377.916V155.075H345.953C345.953 141.538 345.953 129.129 345.953 124.24H378.292V134.393H385.813V117.096H326.775V124.24H337.68V193.807H326.775V200.952H388.445V182.902L380.548 183.278Z" fill="#6CCA98"/>
<path d="M452.747 147.554V140.41H437.706C432.817 148.307 425.672 159.588 423.04 164.1C423.04 164.1 413.263 147.931 408.751 140.41H392.581V147.554H404.238C407.999 153.571 414.391 163.724 418.528 169.741C414.015 176.509 407.247 187.79 403.11 193.807H392.581V200.952C392.581 200.952 404.99 200.952 407.247 200.952C412.135 193.055 418.528 182.15 423.04 175.381C423.04 175.757 433.193 191.551 438.834 200.952H453.123V193.807H443.722C439.586 187.414 432.441 176.133 428.305 169.741C432.065 164.1 438.834 153.571 442.594 147.554H452.747Z" fill="#6CCA98"/>
<path d="M572.702 141.914V140.41H579.847V141.914H577.215V148.683H575.335V141.914H572.702ZM583.231 140.786L585.488 146.802L587.744 140.786H590V149.059H588.496V142.29L586.24 149.059H585.112L582.855 142.29V149.059H581.351V140.786H583.231Z" fill="white"/>
</svg>
